#!OML:ASF H:\Dans Jumps\Project 1\Capture day 1\Session 1\subject.ASF
:FULLY-SPECIFIED
:DEGREES
676
root -0.128743 17.6946 10.4897 6.40933 -0.987981 -1.39707
lowerback -1.92899 0.395514 0.452789
upperback 1.10786 0.490328 1.16326
thorax 2.21072 0.24241 0.957814
lowerneck -14.863 -0.193198 -2.27747
upperneck 10.9642 -0.0914228 2.17727
head 5.74684 0.0278725 1.05055
rclavicle 8.4235e-015 -3.97569e-015
rhumerus -22.5699 -23.6679 -80.0523
rradius 19.9375
rwrist 41.3969
rhand -20.5478 -27.2721
rfingers 7.12502
rthumb 5.8109 -57.1724
lclavicle 8.4235e-015 -3.97569e-015
lhumerus -25.4432 4.51508 86.0585
lradius 16.1038
lwrist 0.542354
lhand -25.0123 -6.18087
lfingers 7.12502
lthumb 1.49966 23.7936
rfemur -12.2251 -1.99716 20.6471
rtibia 20.6438
rfoot -13.7426 -2.80405
rtoes 6.07415
lfemur -12.9631 8.22343 -18.0098
ltibia 18.3942
lfoot -10.0546 3.74504
ltoes -8.79176
677
root -0.127347 17.6947 10.4899 6.40275 -0.960277 -1.39881
lowerback -1.9472 0.401897 0.462379
upperback 1.11182 0.498327 1.16189
thorax 2.22502 0.24654 0.95153
lowerneck -14.8509 -0.199775 -2.28714
upperneck 10.9503 -0.100148 2.19002
head 5.74064 0.0241623 1.05527
rclavicle -1.63997e-015 -5.96354e-016
rhumerus -22.5817 -23.677 -80.073
rradius 19.9357
rwrist 41.3961
rhand -20.528 -27.2705
rfingers 7.12502
rthumb 5.8301 -57.1703
lclavicle -1.63997e-015 -5.96354e-016
lhumerus -25.4655 4.54604 86.0341
lradius 16.0917
lwrist 0.513282
lhand -24.9614 -6.12289
lfingers 7.12502
lthumb 1.54885 23.8512
rfemur -12.2061 -2.01662 20.6447
rtibia 20.6304
rfoot -13.7398 -2.81109
rtoes 6.06461
lfemur -12.962 8.21938 -18.012
ltibia 18.3994
lfoot -10.0623 3.72164
ltoes -8.78766
678
root -0.125957 17.6948 10.4897 6.39863 -0.9334 -1.39905
lowerback -1.96454 0.408428 0.468296
upperback 1.11515 0.506636 1.16104
thorax 2.23814 0.250769 0.947833
lowerneck -14.8432 -0.201991 -2.29007
upperneck 10.9329 -0.10363 2.1982
head 5.73396 0.022959 1.05793
rclavicle -2.08724e-015 -1.98785e-015
rhumerus -22.5923 -23.6925 -80.0905
rradius 19.9299
rwrist 41.4069
rhand -20.5024 -27.2656
rfingers 7.12502
rthumb 5.85474 -57.1647
lclavicle -2.08724e-015 -1.98785e-015
lhumerus -25.4922 4.55867 86.0187
lradius 16.086
lwrist 0.498462
lhand -24.9115 -6.04814
lfingers 7.12502
lthumb 1.59703 23.9256
rfemur -12.193 -2.02715 20.6407
rtibia 20.6199
rfoot -13.735 -2.82752
rtoes 6.05061
lfemur -12.9651 8.22031 -18.017
ltibia 18.4037
lfoot -10.068 3.69465
ltoes -8.79022
679
root -0.124691 17.6948 10.4894 6.39601 -0.908406 -1.39777
lowerback -1.97905 0.41466 0.468019
upperback 1.11766 0.514729 1.16219
thorax 2.24876 0.254783 0.949639
lowerneck -14.834 -0.202287 -2.27876
upperneck 10.9056 -0.104793 2.18784
head 5.72382 0.0220495 1.05257
rclavicle -8.39865e-015 -1.55052e-014
rhumerus -22.6026 -23.7068 -80.1053
rradius 19.9224
rwrist 41.4226
rhand -20.484 -27.2563
rfingers 7.12502
rthumb 5.87252 -57.155
lclavicle -8.39865e-015 -1.55052e-014
lhumerus -25.5235 4.55878 86.0121
lradius 16.0839
lwrist 0.494594
lhand -24.8844 -5.98937
lfingers 7.12502
lthumb 1.62317 23.9842
rfemur -12.1858 -2.02954 20.6354
rtibia 20.6153
rfoot -13.7311 -2.85174
rtoes 6.037
lfemur -12.9707 8.2274 -18.0243
ltibia 18.4077
lfoot -10.0743 3.66517
ltoes -8.8011
680
root -0.123635 17.6947 10.4889 6.39299 -0.888176 -1.3987
lowerback -1.98897 0.421206 0.464895
upperback 1.11952 0.523333 1.1659
thorax 2.25607 0.258994 0.955632
lowerneck -14.8239 -0.198882 -2.25798
upperneck 10.8704 -0.101378 2.1669
head 5.71091 0.0229486 1.04269
rclavicle -4.22417e-016 -6.36111e-015
rhumerus -22.6145 -23.7222 -80.1181
rradius 19.9145
rwrist 41.4392
rhand -20.4775 -27.2329
rfingers 7.12502
rthumb 5.87883 -57.1314
lclavicle -4.22417e-016 -6.36111e-015
lhumerus -25.5541 4.54041 86.0156
lradius 16.0788
lwrist 0.514368
lhand -24.8836 -5.94256
lfingers 7.12502
lthumb 1.62399 24.031
rfemur -12.1818 -2.01558 20.6327
rtibia 20.6153
rfoot -13.7269 -2.88666
rtoes 6.0339
lfemur -12.9761 8.23985 -18.0284
ltibia 18.4112
lfoot -10.0801 3.63482
ltoes -8.79702
681
root -0.122623 17.6944 10.4885 6.38956 -0.869126 -1.39845
lowerback -1.99705 0.427162 0.459916
upperback 1.12125 0.531233 1.16948
thorax 2.26222 0.262826 0.962496
lowerneck -14.8017 -0.201451 -2.25352
upperneck 10.8351 -0.104698 2.15904
head 5.69614 0.0208343 1.03898
rclavicle 4.24902e-015 7.35503e-015
rhumerus -22.6255 -23.7329 -80.1327
rradius 19.9072
rwrist 41.4475
rhand -20.4759 -27.2268
rfingers 7.12502
rthumb 5.88033 -57.1252
lclavicle 4.24902e-015 7.35503e-015
lhumerus -25.5798 4.53748 86.0166
lradius 16.0665
lwrist 0.529757
lhand -24.9004 -5.92024
lfingers 7.12502
lthumb 1.60773 24.0534
rfemur -12.18 -2.00621 20.6289
rtibia 20.6198
rfoot -13.7255 -2.91593
rtoes 6.03196
lfemur -12.9801 8.24631 -18.0331
ltibia 18.4148
lfoot -10.0851 3.61244
ltoes -8.79409
682
root -0.121497 17.6942 10.4883 6.38417 -0.850981 -1.39855
lowerback -2.00583 0.432552 0.456234
upperback 1.12594 0.538285 1.17359
thorax 2.27181 0.266243 0.969168
lowerneck -14.7679 -0.209619 -2.26494
upperneck 10.7915 -0.114053 2.16302
head 5.67701 0.0159771 1.04099
rclavicle 2.88238e-015 1.0138e-014
rhumerus -22.6369 -23.7346 -80.1484
rradius 19.9062
rwrist 41.4418
rhand -20.4746 -27.2177
rfingers 7.12502
rthumb 5.88159 -57.1161
lclavicle 2.88238e-015 1.0138e-014
lhumerus -25.5994 4.53061 86.0229
lradius 16.0504
lwrist 0.554721
lhand -24.9492 -5.93983
lfingers 7.12502
lthumb 1.56067 24.0342
rfemur -12.1762 -1.99998 20.6247
rtibia 20.6261
rfoot -13.7271 -2.93941
rtoes 6.04035
lfemur -12.9804 8.25512 -18.0377
ltibia 18.4171
lfoot -10.0905 3.59052
ltoes -8.80257
683
root -0.120458 17.6937 10.4885 6.3712 -0.832603 -1.39871
lowerback -2.0032 0.43577 0.454727
upperback 1.12918 0.542549 1.17662
thorax 2.27356 0.26832 0.973292
lowerneck -14.7279 -0.229393 -2.30808
upperneck 10.7549 -0.136136 2.19171
head 5.65937 0.0054549 1.05483
rclavicle -5.61567e-015 -6.16232e-015
rhumerus -22.6572 -23.7329 -80.1656
rradius 19.907
rwrist 41.4208
rhand -20.487 -27.2128
rfingers 7.12502
rthumb 5.86969 -57.1115
lclavicle -5.61567e-015 -6.16232e-015
lhumerus -25.6249 4.56049 86.0131
lradius 16.0227
lwrist 0.550075
lhand -24.9812 -6.07584
lfingers 7.12502
lthumb 1.52974 23.8984
rfemur -12.1622 -2.00539 20.6212
rtibia 20.6329
rfoot -13.7322 -2.95206
rtoes 6.04066
lfemur -12.9693 8.26334 -18.0402
ltibia 18.4181
lfoot -10.0978 3.57077
ltoes -8.82593
684
root -0.119052 17.6934 10.4889 6.35941 -0.81327 -1.39499
lowerback -2.00825 0.43909 0.453477
upperback 1.13693 0.546832 1.17788
thorax 2.28429 0.270409 0.975559
lowerneck -14.7073 -0.246986 -2.35365
upperneck 10.7292 -0.154979 2.22374
head 5.64834 -0.0032495 1.07051
rclavicle -1.46604e-015 2.78299e-015
rhumerus -22.6698 -23.752 -80.1785
rradius 19.9047
rwrist 41.4139
rhand -20.4979 -27.1987
rfingers 7.12502
rthumb 5.85917 -57.0976
lclavicle -1.46604e-015 2.78299e-015
lhumerus -25.6424 4.5977 86.005
lradius 15.9947
lwrist 0.536125
lhand -24.9904 -6.16675
lfingers 7.12502
lthumb 1.52082 23.8076
rfemur -12.1478 -2.0206 20.6121
rtibia 20.6388
rfoot -13.7375 -2.9568
rtoes 6.02908
lfemur -12.958 8.27159 -18.0489
ltibia 18.4175
lfoot -10.1065 3.55004
ltoes -8.85128
685
root -0.117571 17.6932 10.4895 6.34685 -0.795728 -1.39209
lowerback -2.01291 0.442972 0.453502
upperback 1.14421 0.551835 1.17918
thorax 2.29431 0.272878 0.977178
lowerneck -14.699 -0.259377 -2.38656
upperneck 10.7112 -0.167844 2.24551
head 5.64165 -0.00924478 1.08149
rclavicle -2.45996e-015 -2.18663e-015
rhumerus -22.6858 -23.776 -80.1881
rradius 19.9027
rwrist 41.4115
rhand -20.5076 -27.1859
rfingers 7.12502
rthumb 5.84972 -57.0851
lclavicle -2.45996e-015 -2.18663e-015
lhumerus -25.6616 4.64236 85.9963
lradius 15.9667
lwrist 0.514975
lhand -24.9732 -6.21557
lfingers 7.12502
lthumb 1.53746 23.7586
rfemur -12.1315 -2.0376 20.6035
rtibia 20.6439
rfoot -13.7441 -2.95651
rtoes 6.02581
lfemur -12.9441 8.27994 -18.0568
ltibia 18.4154
lfoot -10.1138 3.5303
ltoes -8.88034
686
root -0.116039 17.693 10.4897 6.33786 -0.779903 -1.38892
lowerback -2.01865 0.448632 0.452869
upperback 1.15033 0.55925 1.17963
thorax 2.30372 0.276549 0.978382
lowerneck -14.7109 -0.261743 -2.38869
upperneck 10.7021 -0.169961 2.24366
head 5.64081 -0.0104347 1.08104
rclavicle -1.04859e-014 -1.07344e-014
rhumerus -22.7011 -23.8075 -80.1954
rradius 19.9002
rwrist 41.4171
rhand -20.5079 -27.1785
rfingers 7.12502
rthumb 5.84943 -57.0778
lclavicle -1.04859e-014 -1.07344e-014
lhumerus -25.6777 4.6912 85.9891
lradius 15.9393
lwrist 0.48636
lhand -24.9525 -6.21799
lfingers 7.12502
lthumb 1.55745 23.7561
rfemur -12.1195 -2.05061 20.5945
rtibia 20.6468
rfoot -13.747 -2.95861
rtoes 6.01757
lfemur -12.934 8.28424 -18.0657
ltibia 18.4118
lfoot -10.1166 3.51507
ltoes -8.91094
687
root -0.114369 17.6929 10.4899 6.33305 -0.764344 -1.38373
lowerback -2.03038 0.455535 0.450141
upperback 1.15725 0.568326 1.17911
thorax 2.31729 0.281019 0.979905
lowerneck -14.7375 -0.253644 -2.35977
upperneck 10.6971 -0.160767 2.21749
head 5.64336 -0.00661352 1.06893
rclavicle -1.66482e-015 -3.97569e-015
rhumerus -22.7124 -23.8443 -80.2017
rradius 19.8982
rwrist 41.4303
rhand -20.5029 -27.1737
rfingers 7.12502
rthumb 5.85431 -57.0728
lclavicle -1.66482e-015 -3.97569e-015
lhumerus -25.6913 4.72939 85.9897
lradius 15.9183
lwrist 0.461044
lhand -24.9279 -6.15369
lfingers 7.12502
lthumb 1.58117 23.8202
rfemur -12.1118 -2.06532 20.5828
rtibia 20.6479
rfoot -13.7481 -2.96009
rtoes 5.99877
lfemur -12.9285 8.2846 -18.0781
ltibia 18.4078
lfoot -10.1173 3.50227
ltoes -8.93374
